<?xml version="1.0" encoding="UTF-8"?>
<svg xmlns="http://www.w3.org/2000/svg" xmlns:xlink="http://www.w3.org/1999/xlink" width="30px" height="30px" viewBox="0 0 30 30" version="1.1">
<g id="surface1">
<path style=" stroke:none;fill-rule:nonzero;fill:rgb(12.941176%,12.941176%,12.941176%);fill-opacity:1;" d="M 18.746094 6.25 C 23.578125 6.25 27.496094 10.167969 27.496094 15 C 27.496094 19.730469 23.742188 23.585938 19.046875 23.746094 L 18.746094 23.75 L 11.253906 23.75 C 6.421875 23.75 2.503906 19.832031 2.503906 15 C 2.503906 10.269531 6.257812 6.414062 10.953125 6.253906 L 11.253906 6.25 Z M 18.4375 15.625 C 17.574219 15.625 16.875 16.324219 16.875 17.1875 C 16.875 18.050781 17.574219 18.75 18.4375 18.75 C 19.300781 18.75 20 18.050781 20 17.1875 C 20 16.324219 19.300781 15.625 18.4375 15.625 Z M 10 11.25 C 9.523438 11.25 9.132812 11.601562 9.070312 12.058594 L 9.0625 12.1875 L 9.0625 14.058594 L 7.1875 14.0625 C 6.667969 14.0625 6.25 14.480469 6.25 15 C 6.25 15.472656 6.601562 15.867188 7.058594 15.925781 L 7.1875 15.9375 L 9.0625 15.933594 L 9.0625 17.8125 C 9.0625 18.332031 9.480469 18.75 10 18.75 C 10.476562 18.75 10.867188 18.398438 10.929688 17.941406 L 10.9375 17.8125 L 10.9375 15.933594 L 12.8125 15.9375 C 13.332031 15.9375 13.75 15.515625 13.75 15 C 13.75 14.523438 13.398438 14.132812 12.941406 14.070312 L 12.8125 14.0625 L 10.9375 14.058594 L 10.9375 12.1875 C 10.9375 11.667969 10.519531 11.25 10 11.25 Z M 20.9375 11.25 C 20.074219 11.25 19.375 11.949219 19.375 12.8125 C 19.375 13.675781 20.074219 14.375 20.9375 14.375 C 21.800781 14.375 22.5 13.675781 22.5 12.8125 C 22.5 11.949219 21.800781 11.25 20.9375 11.25 Z M 20.9375 11.25 "/>
</g>
</svg>
