<?xml version="1.0" encoding="UTF-8"?>
<svg xmlns="http://www.w3.org/2000/svg" xmlns:xlink="http://www.w3.org/1999/xlink" width="50px" height="50px" viewBox="0 0 50 50" version="1.1">
<g id="surface1">
<path style=" stroke:none;fill-rule:nonzero;fill:rgb(85.882353%,21.960784%,5.490196%);fill-opacity:1;" d="M 24.753906 9.265625 C 22.441406 10.890625 19.824219 12.730469 18.421875 15.777344 C 15.984375 21.09375 23.40625 26.894531 23.722656 27.136719 C 23.796875 27.195312 23.886719 27.222656 23.972656 27.222656 C 24.066406 27.222656 24.160156 27.191406 24.238281 27.125 C 24.382812 27.003906 24.425781 26.792969 24.339844 26.625 C 24.3125 26.570312 21.648438 21.394531 21.746094 17.683594 C 21.78125 16.390625 23.589844 14.921875 25.507812 13.367188 C 27.261719 11.945312 29.25 10.332031 30.414062 8.449219 C 32.96875 4.296875 30.128906 0.214844 30.101562 0.171875 C 29.988281 0.015625 29.78125 -0.0429688 29.601562 0.0351562 C 29.425781 0.113281 29.324219 0.304688 29.367188 0.496094 C 29.371094 0.523438 29.925781 3.222656 28.386719 6.003906 C 27.753906 7.152344 26.363281 8.132812 24.753906 9.265625 Z M 24.753906 9.265625 "/>
<path style=" stroke:none;fill-rule:nonzero;fill:rgb(85.882353%,21.960784%,5.490196%);fill-opacity:1;" d="M 34.484375 11.09375 C 34.648438 10.972656 34.695312 10.75 34.597656 10.570312 C 34.5 10.390625 34.285156 10.3125 34.09375 10.386719 C 33.703125 10.535156 24.484375 14.085938 24.484375 18.382812 C 24.484375 21.339844 25.746094 22.902344 26.671875 24.046875 C 27.03125 24.492188 27.34375 24.878906 27.449219 25.210938 C 27.738281 26.164062 27.050781 27.882812 26.761719 28.464844 C 26.679688 28.632812 26.71875 28.835938 26.863281 28.957031 C 26.9375 29.023438 27.035156 29.058594 27.128906 29.058594 C 27.210938 29.058594 27.292969 29.03125 27.363281 28.984375 C 27.523438 28.875 31.238281 26.246094 30.570312 23.082031 C 30.324219 21.878906 29.730469 21 29.210938 20.222656 C 28.402344 19.023438 27.816406 18.15625 28.703125 16.550781 C 29.742188 14.679688 34.4375 11.132812 34.484375 11.09375 Z M 34.484375 11.09375 "/>
<path style=" stroke:none;fill-rule:nonzero;fill:rgb(45.098039%,63.137255%,98.431373%);fill-opacity:1;" d="M 10.488281 29.125 C 10.332031 29.597656 10.40625 30.066406 10.707031 30.484375 C 11.703125 31.871094 15.246094 32.632812 20.671875 32.632812 C 20.671875 32.632812 20.671875 32.632812 20.675781 32.632812 C 21.410156 32.632812 22.1875 32.621094 22.980469 32.589844 C 31.660156 32.28125 34.878906 29.578125 35.011719 29.460938 C 35.15625 29.335938 35.195312 29.128906 35.105469 28.957031 C 35.015625 28.789062 34.820312 28.707031 34.636719 28.757812 C 31.578125 29.589844 25.871094 29.886719 21.914062 29.886719 C 17.484375 29.886719 15.226562 29.566406 14.675781 29.332031 C 14.957031 28.941406 16.707031 28.25 18.871094 27.820312 C 19.078125 27.78125 19.222656 27.589844 19.199219 27.378906 C 19.179688 27.171875 19.003906 27.011719 18.792969 27.011719 C 17.523438 27.011719 11.15625 27.113281 10.488281 29.125 Z M 10.488281 29.125 "/>
<path style=" stroke:none;fill-rule:nonzero;fill:rgb(45.098039%,63.137255%,98.431373%);fill-opacity:1;" d="M 39.53125 26.339844 C 37.742188 26.339844 36.042969 27.238281 35.972656 27.273438 C 35.808594 27.363281 35.722656 27.554688 35.769531 27.734375 C 35.816406 27.917969 35.980469 28.046875 36.167969 28.046875 C 36.203125 28.046875 39.984375 28.078125 40.328125 30.238281 C 40.628906 32.101562 36.75 35.121094 35.230469 36.125 C 35.066406 36.234375 35 36.445312 35.078125 36.625 C 35.144531 36.78125 35.292969 36.878906 35.457031 36.878906 C 35.484375 36.878906 35.511719 36.875 35.542969 36.867188 C 35.902344 36.792969 44.371094 34.925781 43.472656 29.996094 C 42.929688 26.972656 41.027344 26.339844 39.53125 26.339844 Z M 39.53125 26.339844 "/>
<path style=" stroke:none;fill-rule:nonzero;fill:rgb(45.098039%,63.137255%,98.431373%);fill-opacity:1;" d="M 33.726562 35.523438 C 33.753906 35.363281 33.6875 35.203125 33.558594 35.113281 L 31.527344 33.691406 C 31.429688 33.621094 31.304688 33.597656 31.1875 33.628906 C 31.164062 33.636719 29.042969 34.191406 25.960938 34.535156 C 24.738281 34.671875 23.367188 34.746094 21.996094 34.746094 C 18.914062 34.746094 16.898438 34.382812 16.605469 34.117188 C 16.566406 34.042969 16.578125 34.007812 16.585938 33.988281 C 16.640625 33.84375 16.925781 33.664062 17.109375 33.597656 C 17.3125 33.519531 17.421875 33.300781 17.359375 33.09375 C 17.296875 32.882812 17.082031 32.761719 16.871094 32.8125 C 14.835938 33.304688 13.839844 33.992188 13.910156 34.855469 C 14.039062 36.386719 17.589844 37.175781 20.585938 37.382812 C 21.019531 37.410156 21.484375 37.425781 21.972656 37.425781 C 21.972656 37.425781 21.972656 37.425781 21.976562 37.425781 C 26.960938 37.425781 33.355469 35.863281 33.421875 35.84375 C 33.578125 35.808594 33.695312 35.679688 33.726562 35.523438 Z M 33.726562 35.523438 "/>
<path style=" stroke:none;fill-rule:nonzero;fill:rgb(45.098039%,63.137255%,98.431373%);fill-opacity:1;" d="M 18.417969 38.8125 C 18.570312 38.710938 18.640625 38.519531 18.585938 38.34375 C 18.53125 38.171875 18.367188 38.054688 18.183594 38.058594 C 17.910156 38.066406 15.511719 38.171875 15.34375 39.699219 C 15.292969 40.15625 15.425781 40.574219 15.734375 40.9375 C 16.59375 41.957031 18.917969 42.566406 22.835938 42.792969 C 23.300781 42.820312 23.769531 42.835938 24.238281 42.835938 C 29.21875 42.835938 32.574219 41.273438 32.714844 41.207031 C 32.851562 41.144531 32.941406 41.007812 32.949219 40.859375 C 32.957031 40.707031 32.882812 40.566406 32.753906 40.488281 L 30.1875 38.921875 C 30.097656 38.867188 29.992188 38.847656 29.890625 38.871094 C 29.875 38.875 28.246094 39.210938 25.785156 39.542969 C 25.320312 39.609375 24.738281 39.640625 24.054688 39.640625 C 21.597656 39.640625 18.867188 39.238281 18.34375 38.976562 C 18.335938 38.925781 18.34375 38.863281 18.417969 38.8125 Z M 18.417969 38.8125 "/>
<path style=" stroke:none;fill-rule:nonzero;fill:rgb(45.098039%,63.137255%,98.431373%);fill-opacity:1;" d="M 21.914062 47.542969 C 33.328125 47.535156 39.453125 45.503906 40.632812 44.226562 C 41.046875 43.777344 41.09375 43.347656 41.058594 43.070312 C 40.972656 42.382812 40.34375 41.960938 40.273438 41.914062 C 40.101562 41.804688 39.871094 41.832031 39.738281 41.988281 C 39.605469 42.140625 39.601562 42.367188 39.734375 42.519531 C 39.808594 42.613281 39.851562 42.769531 39.640625 42.980469 C 39.167969 43.417969 34.410156 44.757812 26.488281 45.160156 C 25.402344 45.214844 24.265625 45.242188 23.105469 45.242188 C 16.015625 45.242188 10.824219 44.273438 10.144531 43.707031 C 10.40625 43.328125 12.242188 42.726562 14.195312 42.386719 C 14.414062 42.347656 14.5625 42.140625 14.527344 41.917969 C 14.496094 41.699219 14.289062 41.546875 14.070312 41.574219 C 14.011719 41.582031 13.828125 41.59375 13.609375 41.605469 C 10.390625 41.804688 6.664062 42.242188 6.472656 43.902344 C 6.414062 44.40625 6.5625 44.867188 6.917969 45.265625 C 7.789062 46.246094 10.289062 47.542969 21.914062 47.542969 Z M 21.914062 47.542969 "/>
<path style=" stroke:none;fill-rule:nonzero;fill:rgb(45.098039%,63.137255%,98.431373%);fill-opacity:1;" d="M 42.871094 44.585938 C 42.710938 44.511719 42.519531 44.550781 42.398438 44.679688 C 42.382812 44.699219 40.667969 46.492188 35.507812 47.546875 C 33.535156 47.941406 29.828125 48.144531 24.492188 48.144531 C 19.144531 48.144531 14.058594 47.933594 14.007812 47.929688 C 13.792969 47.921875 13.613281 48.074219 13.582031 48.285156 C 13.554688 48.492188 13.691406 48.691406 13.894531 48.738281 C 13.949219 48.75 19.277344 50 26.570312 50 C 30.066406 50 33.46875 49.714844 36.679688 49.15625 C 42.671875 48.105469 43.09375 45.132812 43.105469 45.007812 C 43.128906 44.832031 43.035156 44.664062 42.871094 44.585938 Z M 42.871094 44.585938 "/>
</g>
</svg>
