<?xml version="1.0" encoding="UTF-8"?>
<svg xmlns="http://www.w3.org/2000/svg" xmlns:xlink="http://www.w3.org/1999/xlink" width="50px" height="50px" viewBox="0 0 50 50" version="1.1">
<defs>
<linearGradient id="linear0" gradientUnits="userSpaceOnUse" x1="19.075" y1="18.782" x2="34.898" y2="34.658" gradientTransform="matrix(0.78125,0,0,0.78125,0,0)">
<stop offset="0" style="stop-color:rgb(21.960784%,49.411765%,72.156863%);stop-opacity:1;"/>
<stop offset="1" style="stop-color:rgb(21.176471%,41.176471%,58.039216%);stop-opacity:1;"/>
</linearGradient>
<linearGradient id="linear1" gradientUnits="userSpaceOnUse" x1="28.809" y1="28.882" x2="45.803" y2="45.163" gradientTransform="matrix(0.78125,0,0,0.78125,0,0)">
<stop offset="0" style="stop-color:rgb(100%,87.843137%,32.156863%);stop-opacity:1;"/>
<stop offset="1" style="stop-color:rgb(100%,76.470588%,19.215686%);stop-opacity:1;"/>
</linearGradient>
</defs>
<g id="surface1">
<path style=" stroke:none;fill-rule:nonzero;fill:url(#linear0);" d="M 24.910156 12.5 C 18.5625 12.5 18.960938 15.253906 18.960938 15.253906 L 18.96875 18.105469 L 25.023438 18.105469 L 25.023438 18.960938 L 16.558594 18.960938 C 16.558594 18.960938 12.5 18.5 12.5 24.902344 C 12.5 31.304688 16.042969 31.078125 16.042969 31.078125 L 18.160156 31.078125 L 18.160156 28.109375 C 18.160156 28.109375 18.046875 24.5625 21.648438 24.5625 L 27.65625 24.5625 C 27.65625 24.5625 31.03125 24.617188 31.03125 21.300781 L 31.03125 15.816406 C 31.03125 15.816406 31.542969 12.5 24.910156 12.5 Z M 21.570312 14.417969 C 22.171875 14.417969 22.660156 14.90625 22.660156 15.507812 C 22.660156 16.109375 22.171875 16.597656 21.570312 16.597656 C 21.28125 16.597656 21.003906 16.484375 20.800781 16.277344 C 20.59375 16.074219 20.480469 15.796875 20.480469 15.507812 C 20.480469 14.90625 20.96875 14.417969 21.570312 14.417969 Z M 21.570312 14.417969 "/>
<path style=" stroke:none;fill-rule:nonzero;fill:url(#linear1);" d="M 25.089844 37.371094 C 31.4375 37.371094 31.039062 34.617188 31.039062 34.617188 L 31.03125 31.765625 L 24.976562 31.765625 L 24.976562 30.910156 L 33.4375 30.910156 C 33.4375 30.910156 37.5 31.371094 37.5 24.96875 C 37.5 18.5625 33.957031 18.789062 33.957031 18.789062 L 31.839844 18.789062 L 31.839844 21.761719 C 31.839844 21.761719 31.953125 25.304688 28.351562 25.304688 L 22.34375 25.304688 C 22.34375 25.304688 18.96875 25.25 18.96875 28.566406 L 18.96875 34.050781 C 18.96875 34.050781 18.457031 37.371094 25.089844 37.371094 Z M 28.429688 35.453125 C 28.140625 35.453125 27.863281 35.339844 27.660156 35.132812 C 27.453125 34.929688 27.339844 34.652344 27.339844 34.363281 C 27.339844 33.761719 27.828125 33.273438 28.429688 33.273438 C 29.03125 33.273438 29.519531 33.761719 29.519531 34.363281 C 29.519531 34.964844 29.03125 35.453125 28.429688 35.453125 Z M 28.429688 35.453125 "/>
</g>
</svg>
