<?xml version="1.0" standalone="no"?>
<!DOCTYPE svg PUBLIC "-//W3C//DTD SVG 20010904//EN"
 "http://www.w3.org/TR/2001/REC-SVG-20010904/DTD/svg10.dtd">
<svg version="1.0" xmlns="http://www.w3.org/2000/svg"
 width="1024.000000pt" height="1024.000000pt" viewBox="0 0 1024.000000 1024.000000"
 preserveAspectRatio="xMidYMid meet">

<g transform="translate(0.000000,1024.000000) scale(0.100000,-0.100000)"
fill="#000000" stroke="none">
<path d="M0 5120 l0 -5120 5120 0 5120 0 0 5120 0 5120 -5120 0 -5120 0 0
-5120z m4117 3585 c148 -74 184 -271 73 -397 -48 -55 -105 -80 -181 -80 -143
0 -251 111 -251 257 0 76 24 128 87 183 76 67 183 81 272 37z m437 -1 c34 -34
9 -94 -39 -94 -47 0 -70 77 -31 102 19 13 54 9 70 -8z m2043 -56 c10 -8 13
-61 13 -204 l0 -193 103 -3 102 -3 3 -38 3 -37 -173 2 -173 3 -5 214 c-3 136
-1 222 5 235 21 42 86 55 122 24z m-3039 -74 c28 -19 28 -49 0 -68 -40 -29
-377 -166 -406 -166 -33 0 -52 16 -52 45 0 33 25 50 150 99 63 25 144 58 180
75 75 35 97 37 128 15z m2609 -58 c22 -19 28 -32 28 -66 0 -76 -80 -116 -139
-69 -21 16 -26 29 -26 64 0 36 5 48 31 69 38 32 70 33 106 2z m-1522 -70 c39
-17 55 -42 55 -88 0 -44 -22 -74 -66 -88 -45 -15 -89 1 -109 41 -30 57 -14
112 38 134 40 18 41 18 82 1z m2693 -142 c-3 -14 -5 -12 -10 9 -3 19 -2 25 4
19 6 -6 8 -18 6 -28z m-3730 4 c7 -7 12 -24 12 -38 0 -45 -15 -50 -150 -50
-130 0 -150 6 -150 42 0 10 9 27 20 38 18 18 33 20 138 20 78 0 122 -4 130
-12z m3701 -44 c10 -9 -45 -3 -59 6 -11 7 -5 8 20 4 19 -4 37 -8 39 -10z
m-1560 -75 c366 -94 689 -368 840 -713 48 -109 91 -270 91 -339 0 -47 -1 -48
-27 -45 -22 2 -29 10 -35 33 -3 17 -4 -13 -1 -65 15 -284 -91 -584 -290 -819
-160 -189 -390 -323 -652 -382 -92 -21 -360 -18 -465 4 -123 26 -249 79 -376
158 -133 82 -197 138 -276 239 -100 128 -105 133 -113 119 -5 -7 -4 -10 2 -6
7 4 12 -7 15 -28 4 -38 -2 -44 -22 -20 -7 8 -10 15 -7 15 3 0 -5 12 -18 26
-14 15 -25 34 -25 42 0 9 -6 23 -14 31 -8 9 -16 22 -18 30 -2 8 -9 22 -17 32
-22 27 -67 138 -85 210 -37 148 -40 427 -6 554 66 245 173 436 333 596 202
202 477 331 772 363 100 10 280 -6 394 -35z m1899 6 c11 -14 22 -25 25 -25 4
0 17 11 31 25 23 23 32 25 116 25 91 0 91 0 101 -28 6 -19 20 -31 42 -38 l32
-9 5 -98 5 -97 -45 -1 c-25 -1 -49 -2 -55 -4 -5 -1 -20 -3 -32 -3 -13 -1 -23
-9 -23 -17 0 -11 17 -15 73 -17 l72 -3 2 -140 c1 -81 -3 -148 -9 -159 -10 -18
-20 -19 -281 -13 -252 6 -272 8 -292 27 -11 11 -35 25 -53 31 l-32 11 0 228 0
229 26 20 c15 12 35 21 45 21 11 0 21 10 25 24 7 29 21 33 126 35 71 1 78 -1
96 -24z m-548 -65 c12 -8 16 -46 18 -221 3 -190 1 -213 -14 -231 -24 -26 -65
-20 -81 12 -9 17 -12 84 -12 219 -1 166 2 198 16 213 18 20 49 23 73 8z
m-2820 -65 c26 -31 -13 -82 -44 -56 -16 14 -22 52 -9 64 11 12 40 8 53 -8z
m-724 -30 c4 -8 3 -26 0 -40 l-6 -25 -298 -2 -297 -3 -3 -132 c-3 -132 -3
-133 -27 -139 -53 -13 -55 -9 -55 174 0 93 3 172 7 175 3 4 156 7 340 7 288 0
334 -2 339 -15z m-1023 -52 c-7 -2 -19 -2 -25 0 -7 3 -2 5 12 5 14 0 19 -2 13
-5z m1514 -54 c14 -13 32 -39 40 -57 41 -97 -74 -203 -171 -157 -91 43 -101
160 -19 225 37 29 112 24 150 -11z m-1610 -41 c-3 -8 -6 -5 -6 6 -1 11 2 17 5
13 3 -3 4 -12 1 -19z m933 -24 c6 -14 7 -36 4 -50 -6 -25 -14 -27 -144 -28
-32 -1 -35 -4 -35 -31 l0 -30 68 -3 67 -3 0 -38 c0 -43 -10 -51 -63 -51 -68 0
-76 -7 -79 -69 l-3 -56 -44 -3 c-24 -2 -47 0 -52 5 -4 4 -9 86 -10 182 -3 160
-2 174 16 187 14 10 53 14 142 14 123 0 124 0 133 -26z m-872 -35 c10 0 12 -2
4 -6 -15 -6 -62 23 -62 37 0 6 9 1 20 -10 11 -11 28 -20 38 -21z m102 37 c0
-2 -8 -10 -17 -17 -16 -13 -17 -12 -4 4 13 16 21 21 21 13z m-43 -42 c-3 -3
-12 -4 -19 -1 -8 3 -5 6 6 6 11 1 17 -2 13 -5z m5743 -24 c18 -18 20 -33 20
-140 0 -108 3 -126 25 -169 29 -58 74 -105 126 -132 47 -23 60 -60 34 -89 -10
-11 -30 -20 -45 -20 -59 0 -183 110 -222 197 -21 47 -36 241 -24 306 12 64 49
84 86 47z m-5741 -161 c17 -6 36 -19 41 -29 13 -24 13 -76 -1 -101 -36 -67
-159 -28 -159 51 0 31 25 68 54 80 28 12 28 12 65 -1z m4642 -241 c66 -76 157
-238 195 -350 23 -68 23 -68 3 -82 -13 -9 -16 -16 -10 -21 6 -3 11 -1 11 5 0
6 5 8 11 4 6 -3 9 -15 6 -25 -3 -11 -1 -17 4 -13 5 3 9 -2 9 -10 0 -11 -10
-16 -27 -17 -16 0 -37 -3 -48 -5 -11 -3 -28 -5 -38 -5 -9 0 -15 -4 -12 -10 4
-5 1 -9 -4 -9 -6 0 -11 5 -11 10 0 6 -12 10 -28 10 -36 0 -117 -71 -166 -144
-20 -30 -41 -58 -47 -61 -7 -5 -6 -12 2 -21 6 -8 8 -14 3 -14 -15 1 -139 120
-126 120 7 0 11 4 8 9 -3 5 -3 30 0 55 5 34 11 46 21 42 10 -4 12 1 6 22 -3
14 -6 39 -6 54 0 16 -2 28 -4 28 -2 0 -15 -24 -28 -52 -31 -70 -31 -40 0 56
27 84 88 211 143 296 37 60 104 150 110 150 2 0 13 -10 23 -22z m588 -45 c35
-44 7 -93 -54 -93 -67 0 -96 52 -53 97 31 33 80 31 107 -4z m-5322 -47 c61
-30 113 -59 117 -64 3 -5 -3 -33 -14 -61 -10 -29 -16 -60 -13 -68 4 -11 2 -14
-5 -9 -7 4 -15 1 -18 -8 -5 -12 -11 -13 -42 -1 -72 25 -230 107 -236 121 -5
14 14 79 36 122 18 34 53 28 175 -32z m5863 -239 c118 -106 216 -200 218 -210
2 -11 -3 -17 -16 -17 -11 0 -47 -26 -79 -58 -53 -53 -86 -76 -198 -137 -42
-22 -89 -27 -92 -10 -1 6 4 9 11 7 7 -1 42 28 77 65 35 38 73 70 83 73 11 3
21 11 24 19 5 14 -75 94 -222 223 -85 74 -102 84 -118 75 -14 -9 -21 -8 -34 4
-14 15 -11 22 46 88 33 39 66 71 73 71 7 0 109 -87 227 -193z m-552 81 c26
-56 -24 -106 -73 -74 -28 18 -35 72 -13 94 22 22 71 10 86 -20z m-5449 -83
c51 -20 106 -35 130 -35 49 0 53 -13 11 -30 -28 -11 -84 -11 -185 2 -17 3 -22
-8 -36 -77 -10 -44 -19 -106 -21 -137 l-3 -58 -35 -1 c-19 -1 -65 -3 -102 -5
-79 -4 -82 -1 -68 95 10 75 51 182 94 250 l28 44 49 -6 c27 -3 89 -22 138 -42z
m871 -82 c8 -16 16 -32 19 -38 3 -5 -2 -5 -10 2 -12 10 -40 -6 -157 -93 l-142
-106 20 -33 c21 -35 27 -71 9 -59 -6 3 -26 31 -46 61 -28 45 -32 57 -22 69 15
18 299 224 309 224 3 0 13 -12 20 -27z m-565 -110 c-7 -105 -15 -123 -63 -152
l-37 -22 35 5 c19 4 37 11 38 16 2 6 8 10 13 10 5 0 4 -10 -2 -23 -21 -45
-160 -107 -203 -91 -10 4 -16 19 -16 40 0 27 -5 36 -24 43 -25 10 -36 48 -36
127 l0 41 63 6 c71 7 164 38 199 67 13 11 27 19 31 20 5 0 6 -39 2 -87z m1320
-38 c58 -52 109 -95 114 -95 5 0 14 -28 21 -62 6 -35 33 -119 60 -188 30 -79
51 -150 55 -192 7 -66 7 -68 -19 -79 -23 -11 -31 -9 -71 20 -85 61 -149 83
-264 92 l-106 7 125 -3 c69 -2 138 -5 155 -8 27 -4 28 -4 10 9 -50 37 -225 81
-271 70 -24 -6 -24 -6 -24 76 0 132 30 292 79 421 6 15 15 27 20 27 6 0 58
-43 116 -95z m4066 -52 c13 -16 20 -24 14 -20 -5 4 -23 -5 -40 -22 -79 -77
-86 -82 -101 -70 -8 6 -14 17 -14 24 0 14 95 115 108 115 5 0 19 -12 33 -27z
m-1109 0 c-6 -3 -9 -10 -6 -15 4 -7 2 -8 -5 -4 -9 6 -9 11 0 22 6 8 15 12 18
8 3 -4 0 -9 -7 -11z m568 -77 c0 -25 -5 -35 -20 -39 -15 -4 -20 -14 -20 -40 0
-38 -32 -121 -57 -149 -8 -9 -12 -22 -7 -30 4 -7 4 -10 0 -6 -5 4 -32 -13 -61
-37 -30 -24 -63 -46 -74 -50 -12 -3 -21 -10 -21 -15 0 -5 -8 -6 -17 -3 -12 5
-15 2 -10 -10 3 -9 1 -19 -5 -23 -14 -9 -5 176 11 228 22 70 70 120 161 166
105 52 120 53 120 8z m1123 -93 c24 -22 22 -72 -5 -100 -44 -47 -118 -16 -118
50 0 37 7 49 35 65 24 14 63 7 88 -15z m-6610 5 c15 -11 18 -38 20 -214 2
-216 -1 -234 -49 -234 -13 0 -28 9 -34 19 -6 12 -10 97 -10 208 0 154 3 193
16 211 17 25 33 28 57 10z m1416 -54 c25 -32 26 -40 5 -48 -8 -3 -12 -2 -9 4
9 14 -13 50 -31 50 -8 0 -12 5 -9 10 10 16 22 12 44 -16z m3495 8 c3 -5 -1 -9
-9 -9 -8 0 -12 4 -9 9 3 4 7 8 9 8 2 0 6 -4 9 -8z m33 -29 c-3 -5 5 -17 16
-28 11 -11 16 -14 12 -6 -5 9 -4 12 3 7 13 -8 16 -73 5 -79 -5 -2 -30 2 -57 8
-46 10 -48 12 -32 28 10 9 22 15 27 12 8 -6 14 23 10 53 -1 6 3 12 9 12 6 0 9
-3 7 -7z m519 -115 c-4 -18 -20 -61 -36 -95 -21 -47 -33 -61 -44 -57 -9 3 -16
1 -16 -6 0 -6 5 -8 10 -5 27 17 4 -16 -42 -60 -29 -28 -47 -43 -40 -34 6 9 8
20 4 24 -4 5 -2 5 4 2 15 -9 40 21 28 33 -5 5 -7 34 -6 64 l4 54 29 -8 c30 -9
33 -7 30 23 -2 10 5 17 14 17 12 0 15 6 10 20 -5 16 -2 20 14 20 14 0 21 6 21
20 0 11 5 20 11 20 8 0 9 -11 5 -32z m-579 -30 c-3 -8 -6 -5 -6 6 -1 11 2 17
5 13 3 -3 4 -12 1 -19z m110 -25 c-3 -10 -5 -2 -5 17 0 19 2 27 5 18 2 -10 2
-26 0 -35z m-4390 -4 c314 -27 607 -155 774 -338 109 -118 192 -279 201 -386
l3 -40 -62 -3 -63 -3 0 53 c0 92 -12 188 -24 188 -6 0 -33 18 -61 40 -27 22
-56 40 -62 40 -10 0 -13 -38 -13 -157 l0 -158 -182 6 c-189 6 -212 10 -309 59
-143 73 -293 240 -392 435 -23 45 -87 234 -87 256 0 17 8 19 75 19 41 0 132
-5 202 -11z m5273 -31 c0 -23 -29 -137 -39 -155 -6 -10 -17 -34 -26 -54 -21
-48 -80 -106 -119 -118 -65 -20 -86 -22 -90 -9 -11 34 -16 119 -7 114 5 -4 13
-1 17 5 4 8 3 9 -4 5 -7 -4 -12 -1 -12 8 0 20 -10 20 -38 0 -12 -8 -22 -11
-22 -7 0 26 105 142 158 175 65 40 182 63 182 36z m682 -5 c10 -9 18 -25 18
-36 0 -22 -27 -57 -44 -57 -6 0 0 7 12 16 12 8 22 26 22 39 0 13 -10 31 -22
39 -12 9 -18 16 -14 16 5 0 18 -7 28 -17z m-1855 -95 l72 -73 -56 -67 c-30
-38 -59 -68 -64 -68 -12 0 -110 81 -122 102 -8 12 0 34 39 97 27 45 51 81 54
81 3 0 38 -33 77 -72z m500 20 c-3 -7 -5 -2 -5 12 0 14 2 19 5 13 2 -7 2 -19
0 -25z m37 -70 c-9 -14 -23 2 -17 18 4 12 8 13 14 3 4 -7 5 -17 3 -21z m-3000
-29 c-3 -5 2 -6 10 -3 11 4 16 0 16 -12 0 -19 -20 -57 -20 -39 0 6 -11 23 -25
38 -14 15 -23 27 -19 27 3 0 1 6 -5 13 -6 8 -8 17 -4 21 9 8 54 -34 47 -45z
m2795 -28 c39 -33 181 -144 314 -248 576 -446 857 -671 857 -685 0 -5 -19 -18
-42 -29 -24 -10 -51 -25 -61 -33 -17 -13 -24 -10 -73 39 -149 150 -368 251
-564 262 -61 4 -110 11 -117 18 -6 7 -67 52 -134 101 -67 49 -140 106 -163
127 -22 21 -75 61 -116 89 -161 109 -194 146 -164 179 9 10 20 17 23 14 4 -2
7 4 7 13 0 18 142 212 155 212 4 0 39 -27 78 -59z m-3105 28 c71 -26 145 -93
178 -161 26 -51 65 -205 75 -300 l5 -47 -28 5 c-16 3 -35 11 -43 17 -8 7 -16
11 -18 10 -8 -7 -22 -1 -43 17 -12 11 -27 17 -31 14 -5 -3 -9 -1 -9 3 0 5 -10
13 -22 18 -13 6 -22 16 -20 23 1 7 -3 12 -9 12 -5 0 -7 5 -3 12 4 7 3 8 -5 4
-7 -4 -18 5 -29 23 -9 17 -24 33 -32 36 -30 10 -132 216 -115 233 2 3 -2 14
-10 26 -8 11 -15 33 -15 48 0 27 1 28 60 28 35 0 81 -8 114 -21z m3336 -19
c-6 -11 -16 -17 -22 -14 -7 5 -5 12 7 21 25 18 28 17 15 -7z m-5140 -100 c23
-23 24 -33 9 -61 -15 -28 -55 -42 -82 -28 -42 23 -47 44 -16 83 25 31 61 34
89 6z m5920 -11 c277 -44 483 -210 564 -451 23 -68 25 -88 21 -180 -5 -127 -9
-138 -46 -138 -23 0 -37 -11 -70 -52 -101 -129 -186 -199 -280 -230 l-47 -15
-16 28 c-9 15 -16 29 -16 32 0 2 19 9 43 15 172 44 285 256 232 438 -58 202
-247 335 -491 346 l-71 3 25 55 c13 30 33 79 44 108 11 28 25 52 31 52 7 0 41
-5 77 -11z m-3660 -59 c0 -5 -2 -10 -4 -10 -3 0 -8 5 -11 10 -3 6 -1 10 4 10
6 0 11 -4 11 -10z m-30 -24 c0 -8 3 -22 7 -32 4 -11 3 -15 -4 -11 -13 8 -23
57 -12 57 5 0 9 -6 9 -14z m120 -81 c0 -19 -2 -35 -4 -35 -2 0 -6 16 -8 35 -2
19 0 35 4 35 4 0 8 -16 8 -35z m-2470 -68 c0 -43 -35 -60 -64 -31 -21 20 -20
30 4 54 16 16 25 18 40 10 11 -6 20 -21 20 -33z m2377 1 c-3 -8 -6 -5 -6 6 -1
11 2 17 5 13 3 -3 4 -12 1 -19z m98 -15 c-2 -10 -7 -35 -10 -56 -3 -21 -10
-35 -14 -33 -10 7 8 106 19 106 5 0 7 -8 5 -17z m-59 -83 c12 0 12 -4 4 -20
-16 -30 -30 -24 -29 13 0 17 3 26 6 20 2 -7 11 -13 19 -13z m-2269 -41 c53
-25 90 -72 109 -136 17 -56 12 -88 -16 -103 -34 -18 -69 8 -93 70 -19 48 -28
58 -69 78 -59 28 -74 65 -38 94 29 23 54 23 107 -3z m2533 -236 c31 -102 30
-113 -15 -113 -39 0 -160 -67 -217 -119 -32 -29 -71 -76 -88 -105 -32 -57 -40
-83 -15 -50 15 18 15 18 8 0 -4 -13 -3 -17 5 -12 7 4 12 14 12 21 0 17 36 38
50 30 6 -4 13 0 16 9 3 8 12 17 21 20 8 4 2 -9 -15 -28 -57 -65 -86 -140 -90
-238 -4 -80 -2 -92 23 -142 15 -30 47 -73 71 -97 34 -33 44 -51 44 -75 0 -30
24 -64 36 -51 3 3 9 88 13 189 8 210 17 236 97 307 119 104 287 85 386 -44 48
-63 56 -100 63 -295 3 -90 8 -166 10 -168 12 -12 25 14 25 50 0 35 6 45 45 80
26 23 57 65 76 103 29 60 31 70 27 142 -5 90 -42 174 -106 245 -26 29 -30 38
-15 30 30 -16 29 -17 28 30 -1 33 -7 46 -31 64 -48 37 -152 93 -196 104 l-41
11 6 42 c4 23 13 66 22 96 l16 53 42 -6 c23 -3 87 -28 142 -56 158 -78 266
-183 335 -325 45 -91 70 -186 70 -262 0 -52 0 -53 -30 -53 -24 0 -31 -5 -35
-27 -32 -151 -70 -228 -156 -315 -37 -36 -84 -75 -105 -86 -51 -26 -140 -52
-177 -52 -16 0 -27 -3 -25 -7 2 -5 17 -35 34 -68 l32 -60 7 -560 c7 -524 8
-563 27 -605 21 -51 60 -95 100 -116 30 -16 106 -10 149 12 56 28 54 3 50 573
-4 623 -18 563 134 559 91 -3 99 -5 117 -28 16 -22 263 -627 313 -767 10 -29
22 -50 25 -48 4 3 5 52 2 110 l-4 105 136 0 136 0 0 -340 0 -340 -115 0 -115
0 -16 -40 c-14 -34 -18 -38 -30 -25 -16 16 -82 171 -210 495 -47 118 -97 244
-112 280 l-27 65 -9 -365 -9 -365 -96 -45 c-91 -43 -100 -45 -186 -45 -77 0
-98 4 -149 28 -133 62 -201 153 -266 358 l-40 124 0 709 0 709 -31 68 c-18 38
-38 69 -45 69 -7 0 -17 -22 -23 -50 -6 -28 -18 -64 -26 -80 -11 -21 -15 -61
-15 -139 0 -137 -8 -148 -123 -165 -59 -9 -144 8 -217 42 -76 37 -178 140
-218 222 -34 68 -38 82 -51 165 -5 28 -9 43 -10 35 -1 -12 -3 -13 -10 -1 -12
18 -31 5 -32 -22 -1 -12 -5 -2 -9 23 -10 59 4 153 36 248 72 215 226 372 442
448 37 13 72 24 79 24 7 0 26 -44 43 -97z m-1746 70 c3 -10 23 -106 45 -213
51 -249 91 -433 95 -438 5 -5 57 65 106 143 72 115 67 113 106 49 18 -30 46
-72 62 -92 16 -20 39 -52 50 -71 l20 -34 10 39 c5 21 38 161 72 309 34 149 65
281 69 295 l8 25 246 3 c220 2 247 1 247 -13 0 -38 -20 -55 -63 -55 l-42 0
-23 -73 c-13 -40 -35 -102 -49 -138 -14 -35 -47 -147 -74 -249 -65 -254 -218
-710 -237 -710 -9 0 -99 119 -144 190 -19 30 -60 95 -91 144 -31 48 -64 106
-74 127 -9 22 -20 39 -24 39 -4 0 -18 -19 -32 -42 -46 -82 -229 -363 -293
-453 l-65 -90 -58 -5 -57 -5 -18 105 c-10 58 -26 141 -37 185 -27 113 -169
974 -169 1026 0 18 12 19 204 19 186 0 205 -2 210 -17z m3681 2 c33 -8 98 -34
145 -57 116 -58 239 -179 292 -288 42 -85 68 -182 68 -256 0 -51 0 -51 -30
-46 -30 4 -30 4 -30 -44 -1 -162 -121 -361 -271 -451 -159 -95 -365 -79 -494
38 -51 47 -125 168 -125 205 0 11 -24 14 -109 14 l-109 0 -7 -70 c-4 -39 -6
-106 -4 -148 l4 -77 -75 -5 c-41 -3 -83 -9 -92 -15 -9 -5 -26 -32 -37 -60
l-20 -50 0 644 c-1 586 0 646 16 663 15 17 41 18 417 18 324 0 413 -3 461 -15z
m-3275 -74 c25 -5 39 -9 32 -10 -7 0 -11 -5 -8 -10 6 -9 -59 -146 -91 -193
l-19 -28 -22 30 c-12 16 -22 33 -22 37 0 4 7 -1 15 -11 8 -11 15 -16 16 -10 0
5 4 0 9 -11 8 -19 9 -19 9 3 1 12 5 22 10 22 13 0 20 25 14 49 -4 17 -12 20
-61 18 -56 -2 -56 -2 -78 38 -47 86 -48 85 58 84 51 0 113 -4 138 -8z m-1228
-157 c158 -78 198 -103 198 -126 0 -15 -27 -95 -36 -107 -2 -2 -17 7 -34 19
-17 12 -32 21 -34 19 -1 -2 -15 -35 -29 -74 -14 -38 -41 -108 -59 -155 l-33
-86 -58 25 c-36 15 -57 30 -57 40 0 9 27 79 60 156 32 77 57 142 54 146 -8 13
-146 79 -165 79 -23 0 -24 8 -2 62 20 52 31 68 49 68 8 0 73 -30 146 -66z
m5183 -14 c-3 -6 0 -13 8 -16 7 -2 15 -10 17 -17 1 -7 4 -193 7 -414 l4 -403
-25 0 c-16 0 -26 7 -30 23 -8 29 -8 785 0 815 4 12 11 22 16 22 5 0 6 -5 3
-10z m93 3 c-16 -2 -40 -2 -55 0 -16 2 -3 4 27 4 30 0 43 -2 28 -4z m-1861
-570 c-3 -10 -5 -4 -5 12 0 17 2 24 5 18 2 -7 2 -21 0 -30z m2333 -18 c0 -73
-74 -169 -158 -207 -29 -13 -77 -22 -140 -25 l-95 -6 29 37 c31 39 37 42 125
51 30 3 70 15 87 25 38 23 91 95 99 133 4 20 11 27 29 27 21 0 24 -5 24 -35z
m-5562 -37 c19 -19 14 -56 -8 -63 -23 -7 -50 10 -50 31 0 13 27 44 39 44 4 0
12 -5 19 -12z m6374 -38 c32 -24 40 -65 23 -107 -16 -38 -41 -53 -90 -53 -82
0 -117 101 -54 154 37 32 86 34 121 6z m-6192 -20 c-14 -9 -7 -15 14 -11 5 1
6 -5 3 -12 -3 -8 0 -20 6 -27 9 -10 9 -14 -1 -17 -6 -3 -10 -8 -8 -12 3 -4
-12 -16 -32 -27 -20 -10 -81 -43 -135 -73 -86 -46 -102 -52 -123 -42 -27 12
-34 61 -11 81 31 28 255 148 277 149 20 1 22 -1 10 -9z m-498 -17 c16 -14 18
-33 18 -156 0 -117 -3 -144 -17 -159 -20 -22 -61 -23 -85 -1 -16 14 -18 33
-18 156 0 117 3 144 17 159 20 22 61 23 85 1z m558 -236 c0 -7 -4 -18 -9 -26
-10 -16 44 -186 83 -258 49 -91 106 -227 99 -234 -19 -17 -414 -249 -425 -249
-14 0 -48 30 -48 42 0 12 -88 148 -95 148 -3 0 -5 -9 -5 -20 0 -11 7 -20 15
-20 9 0 12 -6 9 -17 -5 -15 -4 -16 6 -3 9 12 10 11 5 -8 -4 -15 3 -40 24 -79
17 -31 31 -61 31 -67 0 -6 -26 39 -58 99 -68 130 -109 201 -134 234 -11 15
-16 32 -13 45 4 14 3 17 -3 8 -6 -9 -12 -5 -22 15 -7 15 -13 31 -12 36 1 4 -4
7 -12 7 -29 0 -25 30 7 54 33 25 332 202 449 265 69 38 108 48 108 28z m5940
-146 c0 -5 7 -12 16 -15 12 -4 15 -2 10 9 -3 8 -1 15 5 15 19 0 0 -53 -27 -77
-14 -13 -37 -22 -52 -22 -21 1 -22 2 -7 6 31 8 42 23 17 23 -28 0 -27 8 1 42
22 28 37 35 37 19z m-4320 -376 l0 -265 155 0 155 0 0 255 c0 274 0 274 50
235 19 -15 41 -20 97 -20 116 0 108 39 108 -550 0 -272 -2 -539 -3 -592 l-4
-96 -64 0 c-79 0 -121 -22 -150 -79 l-21 -41 -6 126 c-10 178 -8 414 2 430 4
8 11 13 15 12 4 0 30 27 59 61 l52 62 -49 -6 c-27 -4 -150 -7 -273 -7 l-224 0
12 -22 c6 -13 19 -32 29 -43 15 -17 18 -51 24 -250 4 -126 8 -242 10 -258 l4
-27 -28 20 c-31 22 -109 27 -153 11 -32 -12 -69 -65 -78 -110 -4 -20 -7 286
-8 680 -1 544 2 718 11 727 8 8 55 12 145 12 l133 0 0 -265z m3042 243 c3 -21
6 -22 209 -23 113 -1 211 -5 218 -9 9 -6 7 -12 -9 -23 -29 -21 -399 -30 -412
-11 -5 9 -8 8 -8 -4 0 -17 17 -18 203 -20 l202 -3 -201 -2 -201 -3 -7 -77 c-3
-42 -6 -96 -6 -120 l0 -43 -199 0 c-175 0 -201 -2 -220 -17 -21 -18 -21 -23
-22 -465 0 -518 12 -468 -118 -468 l-81 0 -1 393 c0 215 0 418 1 450 2 76 -16
104 -73 114 -23 4 -45 6 -49 5 -5 -1 -8 15 -8 35 0 28 3 34 10 23 9 -13 10
-13 11 0 1 8 5 2 9 -15 l7 -30 10 25 c6 14 14 25 19 25 5 0 8 6 8 12 -1 7 2
10 7 8 4 -3 22 3 39 14 19 11 27 22 21 25 -6 4 -11 2 -11 -3 0 -6 -7 -11 -16
-11 -8 0 -12 5 -9 10 4 6 -12 10 -42 10 -26 0 -65 3 -85 6 l-37 6 -3 -73 -3
-74 -173 -5 c-96 -3 -175 -4 -176 -3 -1 2 1 31 6 65 4 35 12 107 17 161 13
152 -54 137 607 137 l563 0 3 -22z m1492 -50 c12 -17 16 -48 16 -126 0 -113
-8 -128 -55 -98 -24 16 -25 21 -25 121 0 88 3 106 18 114 24 15 29 14 46 -11z
m-1039 -18 c3 -5 1 -10 -4 -10 -6 0 -11 5 -11 10 0 6 2 10 4 10 3 0 8 -4 11
-10z m708 -222 c32 -14 58 -28 59 -33 0 -5 -46 -33 -102 -62 -94 -50 -108 -55
-188 -60 -77 -5 -90 -9 -117 -34 l-30 -28 -59 45 -59 45 -256 -3 -256 -3 -3
77 -3 78 443 2 c544 4 501 5 571 -24z m-4690 -87 c7 -5 12 -23 11 -38 -1 -15
-3 -89 -5 -163 -2 -82 -4 -108 -6 -65 -2 39 -8 79 -13 90 -5 11 -11 38 -13 60
-2 22 -4 -22 -5 -97 l-2 -138 -57 -1 c-32 -1 -61 -1 -65 0 -5 0 -8 -3 -8 -9 0
-5 0 -13 0 -17 0 -5 28 -10 62 -13 l63 -5 3 -126 c3 -124 2 -127 -20 -133 -13
-3 -141 -4 -286 -2 -145 2 -277 0 -293 -4 -34 -10 -47 3 -27 28 12 15 11 16
-4 3 -15 -11 -18 -11 -19 0 0 10 -2 11 -6 2 -18 -46 -23 19 -23 307 l0 320
163 2 c89 2 247 5 350 6 120 2 192 0 200 -7z m-1666 -180 c14 -18 18 -208 5
-227 -14 -20 -45 -25 -68 -9 -23 15 -24 21 -24 120 0 91 3 108 20 125 21 21
46 18 67 -9z m6639 -5 c21 -32 16 -39 -89 -136 -87 -80 -118 -95 -145 -68 -7
7 -12 24 -12 38 0 20 20 45 90 108 99 89 128 100 156 58z m-5998 -142 c42 -29
18 -104 -34 -104 -30 0 -66 46 -58 74 13 44 53 57 92 30z m-308 -79 c53 -27
53 -103 0 -130 -37 -19 -74 -11 -100 22 -27 34 -25 69 5 98 28 29 54 31 95 10z
m4749 -12 l23 -6 -3 -416 c-3 -374 -2 -422 14 -473 33 -108 139 -204 286 -259
31 -11 64 -28 74 -36 20 -19 22 -54 5 -71 -16 -16 -91 -15 -133 3 -76 31 -237
149 -293 213 -31 36 -73 83 -93 104 l-37 38 -708 1 c-523 2 -687 5 -626 12 70
8 82 13 82 28 0 12 7 19 20 19 13 0 20 7 20 20 0 19 7 20 163 21 761 3 1112
10 1119 22 4 6 8 180 8 385 0 214 4 371 9 368 5 -3 11 3 14 14 5 21 17 24 56
13z m1225 -72 c8 -12 -40 -52 -92 -75 -33 -15 -45 -16 -56 -7 -21 18 -2 54 37
74 35 17 103 22 111 8z m-328 -94 l37 -42 -2 -105 c-2 -83 -6 -111 -21 -135
-22 -34 -147 -161 -154 -154 -2 2 -6 87 -8 189 l-5 185 50 52 c27 29 53 53 58
53 4 0 24 -19 45 -43z m-5426 9 c0 -3 -16 -17 -35 -32 -30 -22 -37 -24 -51
-13 -15 12 -14 15 6 31 19 16 80 26 80 14z m-422 -26 c14 -23 69 -26 197 -11
65 8 126 -1 111 -16 -3 -4 -75 -5 -159 -4 -195 3 -192 5 -192 -145 0 -97 -5
-119 -20 -94 -17 28 -115 -4 -115 -37 0 -20 -24 -11 -28 11 -10 49 33 96 88
96 19 0 20 6 20 84 0 74 3 86 25 110 29 31 56 33 73 6z m6318 -87 c-3 -42 -6
-103 -6 -137 0 -34 -4 -56 -8 -49 -5 8 -12 8 -25 -2 -17 -12 -16 -14 10 -22
28 -10 28 -10 -19 -26 -66 -22 -117 -60 -238 -176 l-105 -101 -97 2 -98 3 153
158 c260 269 419 427 430 427 6 0 8 -27 3 -77z m-5464 2 c3 -13 1 -22 -3 -19
-9 5 -13 44 -5 44 2 0 6 -11 8 -25z m196 -42 c-38 -2 -98 -2 -135 0 -38 2 -7
3 67 3 74 0 105 -1 68 -3z m130 0 c-10 -2 -28 -2 -40 0 -13 2 -5 4 17 4 22 1
32 -1 23 -4z m75 0 c-7 -2 -19 -2 -25 0 -7 3 -2 5 12 5 14 0 19 -2 13 -5z
m4174 -162 c22 -11 52 -34 66 -51 26 -30 57 -114 57 -153 0 -44 -26 -102 -65
-145 l-42 -46 74 -63 73 -64 0 -85 c0 -53 -4 -84 -11 -84 -21 0 -69 58 -69 84
0 28 -36 59 -116 99 -28 14 -58 37 -67 51 -9 13 -44 39 -77 57 -72 38 -137
107 -146 156 -20 104 54 232 153 263 42 14 125 4 170 -19z m-5336 -57 c18 -20
25 -31 14 -24 -18 11 -61 60 -52 60 1 0 19 -16 38 -36z m192 1 c-10 -13 -25
-27 -33 -30 -8 -4 -2 8 14 24 36 37 43 40 19 6z m358 -45 c12 -7 19 -21 19
-40 0 -25 -24 -55 -147 -180 -131 -133 -152 -150 -181 -150 -24 0 -35 6 -43
24 -7 14 -8 30 -3 39 18 32 306 317 320 317 9 0 24 -5 35 -10z m490 -149 c32
-32 59 -62 59 -66 0 -3 -73 -81 -163 -173 -90 -92 -225 -232 -302 -312 -76
-80 -156 -163 -177 -185 l-38 -40 -65 65 c-36 35 -65 69 -65 74 0 11 56 73
244 266 83 85 211 217 284 293 73 75 140 137 148 137 8 0 42 -27 75 -59z
m-1218 -113 c37 -45 -3 -118 -64 -118 -65 0 -92 78 -43 127 20 20 31 24 57 19
18 -3 40 -16 50 -28z m2705 26 c30 -9 28 -34 -3 -34 -14 0 -25 -4 -25 -10 0
-5 13 -10 29 -10 16 0 31 -6 34 -14 3 -8 23 -17 44 -19 21 -2 -197 -4 -484 -5
l-523 -2 0 34 c0 71 -36 66 459 66 245 0 456 -3 469 -6z m3601 -188 c49 -50
51 -54 30 -59 -12 -3 -140 -5 -283 -4 l-261 2 -3 44 c-6 75 -18 71 236 71
l228 0 53 -54z m-6070 8 c28 -36 26 -66 -5 -103 -49 -58 -144 -28 -144 45 0
77 103 117 149 58z m3699 -221 c-4 -165 -8 -208 -25 -258 -12 -33 -27 -79 -34
-103 -7 -24 -21 -48 -31 -53 -11 -6 -109 -9 -248 -7 -258 3 -257 3 -267 76 -3
23 -8 41 -12 40 -30 -3 -31 4 -31 252 l0 250 326 0 327 0 -5 -197z m-2135 145
c50 -15 122 -81 142 -130 8 -21 13 -38 11 -38 -2 0 -23 16 -47 36 -83 69 -171
96 -216 67 -12 -8 -26 -12 -32 -9 -5 3 -20 2 -33 -3 -17 -7 -18 -10 -5 -10 9
-1 17 -5 17 -10 0 -14 -28 -21 -33 -8 -3 8 -11 6 -23 -7 -11 -10 -13 -16 -6
-12 18 10 15 -5 -8 -39 l-20 -30 6 35 5 35 -20 -40 c-11 -22 -21 -49 -21 -60
-1 -33 -13 -43 -38 -34 -22 8 -23 13 -17 52 14 82 58 147 128 187 58 33 136
40 210 18z m3000 -39 c40 -11 47 -26 20 -50 -10 -8 -25 -26 -35 -39 -18 -27
-14 -29 -89 28 -24 19 -50 37 -58 42 -9 4 -11 14 -7 25 5 15 15 17 69 11 34
-3 79 -11 100 -17z m-1803 -73 c0 -7 -8 -24 -19 -37 -16 -21 -19 -53 -25 -284
-4 -159 -11 -264 -18 -272 -15 -18 -508 -19 -526 -1 -7 7 -13 50 -14 112 -1
92 -2 96 -8 41 -6 -57 -7 -58 -8 -15 -2 33 -5 41 -12 30 -5 -8 -11 -28 -11
-45 -1 -16 -6 15 -9 70 -10 132 -12 400 -3 408 3 4 152 7 330 7 266 0 323 -2
323 -14z m1470 -84 c0 -7 -26 -40 -57 -73 l-57 -60 -43 86 c-41 80 -42 87 -28
109 l15 23 85 -36 c47 -20 85 -42 85 -49z m503 50 c29 -21 156 -109 282 -195
286 -195 458 -319 462 -332 2 -6 -22 -41 -52 -78 -50 -60 -58 -66 -71 -53 -8
9 -30 23 -49 32 -19 9 -35 20 -35 25 0 5 -6 9 -13 9 -7 0 -18 9 -25 20 -7 11
-16 20 -21 20 -20 0 -110 63 -104 73 3 6 2 7 -4 4 -9 -5 -100 52 -113 72 -14
22 -103 80 -113 74 -7 -3 -9 -3 -5 2 11 12 -69 68 -84 59 -7 -4 -10 -4 -6 1 9
9 -21 34 -41 35 -8 0 -37 17 -65 38 -28 21 -68 48 -88 61 -21 12 -38 25 -38
28 0 7 120 143 126 143 3 0 28 -17 57 -38z m-3105 -57 c-3 -3 -9 2 -12 12 -6
14 -5 15 5 6 7 -7 10 -15 7 -18z m4410 -111 c26 -18 30 -74 6 -98 -38 -39
-104 -7 -104 50 0 34 28 64 60 64 9 0 26 -7 38 -16z m-4663 -24 c10 -11 14
-20 9 -20 -5 0 -15 9 -22 20 -7 11 -11 20 -9 20 2 0 12 -9 22 -20z m235 16 c0
-2 -8 -10 -17 -17 -16 -13 -17 -12 -4 4 13 16 21 21 21 13z m-46 -51 c-10 -8
-23 -14 -29 -14 -5 0 -1 6 9 14 11 8 24 15 30 15 5 0 1 -7 -10 -15z m-49 -25
c3 -6 -1 -7 -9 -4 -18 7 -21 14 -7 14 6 0 13 -4 16 -10z m-150 -20 c3 -5 2
-10 -4 -10 -5 0 -13 5 -16 10 -3 6 -2 10 4 10 5 0 13 -4 16 -10z m4385 -12
c112 -58 147 -198 50 -198 -23 0 -33 8 -55 46 -21 36 -39 51 -81 70 -44 19
-54 28 -54 48 0 29 34 56 70 56 14 0 46 -10 70 -22z m-1298 -13 c16 -14 26
-25 21 -25 -11 1 -70 50 -59 50 4 0 21 -11 38 -25z m-3401 -35 c42 -23 61
-102 37 -155 -13 -29 -55 -55 -88 -55 -29 0 -76 26 -94 52 -18 26 -21 80 -5
109 24 46 105 73 150 49z m783 -146 c20 -20 21 -78 1 -98 -56 -55 -136 4 -100
74 22 42 70 54 99 24z m313 -16 c-3 -8 -6 -5 -6 6 -1 11 2 17 5 13 3 -3 4 -12
1 -19z m-30 -25 c-3 -10 -5 -4 -5 12 0 17 2 24 5 18 2 -7 2 -21 0 -30z m-775
-70 c52 -47 -18 -127 -77 -89 -29 19 -32 51 -9 84 18 26 60 29 86 5z m4230
-50 c28 -25 23 -53 -9 -54 -24 -2 -25 -2 -5 -6 12 -2 22 -9 22 -14 0 -6 -4 -7
-10 -4 -6 3 -7 -1 -4 -9 4 -11 -3 -19 -21 -26 -29 -11 -52 -3 -76 26 -9 12 -9
15 -1 10 7 -4 12 -2 12 7 0 24 24 39 39 24 11 -10 11 -8 0 10 -10 18 -10 24 0
37 17 20 30 20 53 -1z m-1181 -23 c4 0 15 -13 24 -30 14 -27 14 -33 0 -60 -9
-16 -19 -30 -23 -30 -4 0 -17 -3 -29 -6 -14 -4 -28 1 -42 15 -21 21 -28 65
-12 75 4 3 6 -6 3 -20 -3 -17 2 -31 16 -45 27 -25 50 -26 31 -1 -13 15 -12 16
4 3 14 -11 20 -11 32 -1 17 14 20 46 5 55 -5 3 -7 12 -4 19 6 16 -36 30 -50
16 -6 -6 -15 -10 -20 -10 -6 0 -2 7 9 16 11 8 26 12 33 9 8 -3 18 -5 23 -5z
m-2816 -35 c30 -29 32 -58 5 -85 -27 -27 -75 -26 -94 2 -21 30 -20 50 5 82 26
33 53 33 84 1z m1733 -27 c17 -17 15 -52 -5 -71 -10 -8 -40 -24 -68 -35 -27
-11 -108 -43 -180 -71 -106 -43 -133 -50 -152 -42 -27 13 -32 61 -7 82 24 20
346 148 375 148 14 1 30 -4 37 -11z m284 -5 c41 -37 6 -113 -52 -113 -35 0
-50 17 -50 57 0 60 60 94 102 56z m1666 -136 l-3 -26 -33 29 c-29 25 -32 31
-22 51 l12 22 25 -25 c16 -17 24 -34 21 -51z"/>
<path d="M3955 8606 c-36 -16 -59 -47 -74 -101 -9 -34 -8 -46 10 -81 24 -50
57 -74 110 -81 75 -11 159 77 145 150 -7 34 -48 92 -74 106 -33 17 -87 20
-117 7z"/>
<path d="M5360 7954 c-273 -35 -526 -176 -678 -376 -61 -81 -143 -245 -167
-333 -9 -34 -19 -121 -22 -201 -7 -162 9 -260 59 -384 163 -396 537 -632 963
-607 338 20 644 232 800 552 75 156 90 225 89 415 -1 138 -4 165 -27 243 -44
142 -121 281 -216 389 -100 113 -297 232 -461 278 -74 21 -260 34 -340 24z
m130 -160 c87 -22 179 -64 254 -118 75 -53 194 -177 231 -240 37 -62 81 -181
96 -255 l12 -61 -52 -50 c-28 -27 -51 -46 -51 -43 0 3 -6 0 -14 -7 -8 -6 -12
-19 -9 -28 4 -14 3 -14 -5 -3 -9 12 -13 12 -26 2 -9 -7 -13 -18 -9 -24 3 -5 2
-7 -4 -4 -13 8 -85 -42 -78 -54 4 -5 3 -8 -2 -7 -11 4 -113 -62 -113 -73 0 -5
-5 -9 -11 -9 -18 0 -70 -41 -64 -51 4 -5 0 -6 -7 -4 -7 3 -35 -8 -61 -25 -26
-16 -52 -30 -57 -30 -5 0 -12 -5 -16 -12 -5 -7 -3 -8 6 -3 9 5 11 4 6 -3 -4
-7 -18 -12 -30 -12 -13 0 -29 -7 -36 -15 -7 -8 -16 -12 -21 -9 -5 3 -9 1 -9
-5 0 -6 -7 -7 -17 -4 -12 5 -14 3 -8 -7 5 -9 4 -11 -4 -6 -16 10 -51 -3 -51
-20 0 -8 7 -14 15 -14 8 0 15 5 15 10 0 6 7 10 15 10 8 0 15 -4 15 -10 0 -5 9
-10 20 -10 13 0 20 -7 20 -20 0 -18 7 -20 60 -20 53 0 60 2 60 20 0 13 7 20
20 20 13 0 20 7 20 20 0 18 7 20 80 20 l80 0 0 39 c0 22 -5 41 -12 43 -25 9
20 38 56 38 29 0 36 4 36 20 0 13 7 20 20 20 17 0 20 -7 20 -40 0 -33 -3 -40
-20 -40 -13 0 -20 -7 -20 -20 0 -22 15 -27 24 -7 5 10 7 10 12 0 9 -20 24 -15
24 7 0 11 5 20 10 20 6 0 10 18 10 40 l0 40 46 0 c42 0 45 2 39 21 -5 15 -4
19 4 15 6 -4 11 -18 11 -32 0 -14 -4 -23 -9 -20 -12 8 -34 -21 -26 -34 4 -6 4
-19 0 -28 -7 -14 -9 -13 -16 8 -8 22 -8 21 -4 -7 3 -26 -3 -39 -35 -75 -22
-24 -40 -46 -40 -50 0 -5 -9 -8 -19 -8 -11 0 -23 -5 -27 -12 -5 -7 -2 -9 7 -4
8 4 -8 -14 -36 -39 -72 -67 -208 -131 -330 -156 -117 -24 -298 -22 -400 6
-192 51 -328 171 -406 360 -12 30 -26 55 -29 55 -4 0 -13 -11 -20 -25 -18 -35
-25 -20 -40 89 -15 107 -7 234 20 343 73 286 320 538 585 599 72 16 200 11
295 -12z m566 -729 c-9 -9 -16 -13 -16 -8 0 12 22 34 28 28 2 -2 -3 -11 -12
-20z m11 -77 c-3 -8 -6 -5 -6 6 -1 11 2 17 5 13 3 -3 4 -12 1 -19z m-12 -75
c-3 -19 -12 -33 -20 -33 -18 0 -20 17 -4 22 6 2 11 24 11 48 0 40 1 42 10 20
5 -14 7 -40 3 -57z"/>
<path d="M5920 6669 c0 -5 5 -7 10 -4 6 3 10 8 10 11 0 2 -4 4 -10 4 -5 0 -10
-5 -10 -11z"/>
<path d="M5310 6610 c-9 -6 -10 -10 -3 -10 6 0 15 5 18 10 8 12 4 12 -15 0z"/>
<path d="M4080 6306 c0 -3 9 -10 20 -16 11 -6 20 -8 20 -6 0 3 -9 10 -20 16
-11 6 -20 8 -20 6z"/>
<path d="M4153 6234 c0 -16 13 -19 21 -5 3 5 0 11 -7 14 -8 3 -14 -1 -14 -9z"/>
<path d="M6962 6470 c0 -14 2 -19 5 -12 2 6 2 18 0 25 -3 6 -5 1 -5 -13z"/>
<path d="M7350 6310 c0 -5 5 -10 10 -10 6 0 10 5 10 10 0 6 -4 10 -10 10 -5 0
-10 -4 -10 -10z"/>
<path d="M2897 6060 c-101 -30 -62 -177 68 -256 59 -36 163 -126 174 -150 11
-25 35 -32 46 -14 4 6 2 16 -4 23 -12 15 2 42 18 33 25 -16 8 16 -40 73 -36
44 -55 77 -66 117 -31 120 -118 197 -196 174z"/>
<path d="M2808 5733 c7 -3 16 -2 19 1 4 3 -2 6 -13 5 -11 0 -14 -3 -6 -6z"/>
<path d="M2893 5695 c-15 -16 -7 -25 23 -25 12 0 25 7 28 16 5 13 2 15 -13 11
-11 -3 -21 -1 -23 3 -2 4 -8 2 -15 -5z"/>
<path d="M2990 5674 c0 -16 2 -17 10 -4 8 12 10 10 10 -9 0 -22 2 -23 48 -16
66 9 72 21 15 27 -26 3 -56 9 -65 13 -14 5 -18 2 -18 -11z"/>
<path d="M3910 5926 c0 -2 7 -7 16 -10 8 -3 12 -2 9 4 -6 10 -25 14 -25 6z"/>
<path d="M2052 5968 c2 -5 7 -9 11 -9 4 1 14 1 22 1 26 0 16 15 -10 16 -15 1
-25 -2 -23 -8z"/>
<path d="M7975 5870 c27 -12 35 -12 35 0 0 6 -12 10 -27 9 -25 0 -26 -1 -8 -9z"/>
<path d="M7948 5833 c7 -3 16 -2 19 1 4 3 -2 6 -13 5 -11 0 -14 -3 -6 -6z"/>
<path d="M6396 5247 c46 -34 68 -59 87 -99 49 -100 45 -221 -8 -328 -22 -43
-117 -143 -160 -168 -20 -12 -20 -12 5 -32 17 -14 36 -19 60 -17 29 3 40 -2
70 -34 58 -61 134 -74 215 -35 106 50 162 141 175 284 4 48 8 76 10 62 1 -14
2 -31 1 -39 -2 -7 2 -10 8 -6 6 3 11 15 11 26 0 11 5 17 10 14 15 -9 12 24 -6
86 -23 77 -54 135 -64 119 -5 -7 -7 -1 -7 16 0 22 -15 42 -60 84 -93 88 -134
103 -283 108 l-125 4 61 -45z"/>
<path d="M5998 5143 c-1 -36 -3 -45 -5 -25 -8 60 -23 32 -25 -45 l-2 -78 -6
80 c-5 60 -7 31 -8 -112 -1 -106 2 -193 6 -193 5 0 21 14 37 30 26 28 34 30
97 30 38 0 83 6 101 14 110 48 156 183 93 275 -42 60 -93 81 -199 81 l-87 0
-2 -57z"/>
<path d="M2472 4500 c0 -14 2 -19 5 -12 2 6 2 18 0 25 -3 6 -5 1 -5 -13z"/>
<path d="M2285 4037 l-28 -23 58 -100 c45 -77 119 -194 140 -222 1 -2 19 7 39
18 l36 22 -16 31 c-9 18 -26 46 -39 62 -12 17 -47 71 -78 121 -73 117 -77 121
-112 91z"/>
<path d="M2061 3871 c-8 -5 -9 -11 -3 -15 5 -3 12 1 16 9 6 17 6 18 -13 6z"/>
<path d="M2106 3767 c3 -10 9 -15 12 -12 3 3 0 11 -7 18 -10 9 -11 8 -5 -6z"/>
<path d="M6600 3840 c-20 -6 -21 -8 -5 -8 11 0 31 4 45 8 20 6 21 8 5 8 -11 0
-31 -4 -45 -8z"/>
<path d="M3030 3290 c0 -17 7 -20 41 -20 42 0 79 14 79 30 0 6 -27 10 -60 10
-53 0 -60 -2 -60 -20z"/>
<path d="M7412 2670 c-48 -29 -69 -79 -54 -129 24 -80 108 -115 166 -70 80 63
70 167 -20 205 -44 18 -53 18 -92 -6z"/>
<path d="M4728 2353 c6 -2 18 -2 25 0 6 3 1 5 -13 5 -14 0 -19 -2 -12 -5z"/>
</g>
</svg>
